<?xml version="1.0" encoding="UTF-8"?>
<svg version="1.1" xmlns="http://www.w3.org/2000/svg" width="1254" height="1254">
<path d="M0 0 C413.82 0 827.64 0 1254 0 C1254 413.82 1254 827.64 1254 1254 C840.18 1254 426.36 1254 0 1254 C0 840.18 0 426.36 0 0 Z " fill="#FDFDFD" transform="translate(0,0)"/>
<path d="M0 0 C6.82541703 5.01777234 11.54988436 9.80035381 14 18 C14.57328497 22.98937037 14.54804924 27.96195125 14.51898193 32.97706604 C14.52486346 34.49451799 14.53249378 36.01196399 14.541713 37.52939934 C14.56191843 41.68214654 14.55743377 45.83455106 14.54880548 49.98732483 C14.54385237 54.47191003 14.5619558 58.95641007 14.57722473 63.44096375 C14.60052027 71.20508858 14.60928601 78.96912006 14.60811615 86.73327827 C14.60644585 97.9588537 14.62679246 109.18430478 14.65247145 120.40984701 C14.6935402 138.62356708 14.71686226 156.83726476 14.72900391 175.05102539 C14.74083475 192.74147696 14.76103606 210.4318864 14.79248047 228.12231445 C14.79441657 229.21319032 14.79635267 230.30406619 14.79834744 231.42799891 C14.80811212 236.90073353 14.81804121 242.37346784 14.82805204 247.84620202 C14.91085777 293.23078079 14.96485386 338.61536098 15 384 C18.62423091 385.89730618 22.24952707 387.79256838 25.875 389.6875 C26.88820313 390.21794922 27.90140625 390.74839844 28.9453125 391.29492188 C35.26472254 394.59640853 41.61013966 397.83695713 48 401 C48 401.66 48 402.32 48 403 C53.02196798 404.99520003 53.02196798 404.99520003 58.18066406 404.24951172 C60.58006307 402.91787187 62.84892355 401.47040583 65.125 399.9375 C66.66754385 398.94392826 68.21194976 397.95324383 69.7578125 396.96484375 C70.60534088 396.37520844 71.45286926 395.78557312 72.32608032 395.17807007 C75.21027961 393.31962874 78.13892236 392.14386348 81.34628296 390.93704224 C87.75200082 388.27545205 93.50410791 385.41527668 98 380 C101.7080582 370.40317243 100.6277735 359.30791947 100.23500633 349.19155192 C100.10207237 345.11657471 100.10066789 341.04155035 100.08605957 336.96473694 C100.03988617 329.24876728 99.88710621 321.53909205 99.69055033 313.82563072 C99.34317179 300.02509128 99.19544462 286.22124418 99.06118345 272.41722494 C99.01016511 267.58280197 98.91833045 262.7514162 98.79027748 257.91843593 C98.71480557 254.90148573 98.66372822 251.88441545 98.61740685 248.86689186 C98.59049448 247.48002548 98.55299867 246.09331248 98.50347328 244.7070694 C98.16879989 235.18028674 99.51847562 227.95593454 105 220 C111.56200039 213.37737206 118.47441606 209.99234637 127.75 209.4375 C135.66263501 209.66757662 142.27690814 212.73239279 148.203125 217.93359375 C155.24729489 225.52531466 156.44387563 232.29351009 156.34057617 242.35131836 C156.34101425 243.47400116 156.34145233 244.59668396 156.34190369 245.75338745 C156.33982053 249.44905231 156.31651098 253.14425854 156.29296875 256.83984375 C156.28737114 259.408165 156.28310182 261.97648946 156.28010559 264.54481506 C156.26983757 270.60434022 156.24621469 276.66367727 156.21605712 282.72313172 C156.18245595 289.6251952 156.16601279 296.52726675 156.15097082 303.42939174 C156.11966325 317.61968209 156.06693858 331.80983523 156 346 C159.53365252 344.07762043 163.0664593 342.15369168 166.59912109 340.22949219 C167.59467514 339.68791473 168.59022919 339.14633728 169.61595154 338.58834839 C176.35403385 334.91690256 183.02453896 331.16397292 189.625 327.25 C191.638708 326.06666129 193.65305895 324.88441619 195.66796875 323.703125 C196.69583496 323.10048828 197.72370117 322.49785156 198.78271484 321.87695312 C204.4822147 318.55188446 210.20793576 315.27288503 215.9375 312 C216.52505066 311.66425964 217.11260132 311.32851929 217.71795654 310.98260498 C227.06210152 305.64634412 236.4484998 300.38758843 245.84741211 295.1484375 C253.95286755 290.61715772 261.97383666 285.95099829 269.98144531 281.24951172 C278.13749418 276.47293063 286.3742898 271.85178781 294.63354492 267.2565918 C301.9127812 263.19628573 309.12568922 259.03398573 316.3125 254.8125 C325.30707618 249.53062231 334.38690775 244.43696795 343.54296875 239.44140625 C349.08177034 236.4173681 354.55560989 233.2864687 360.02392578 230.13671875 C372.33965303 223.05220848 384.68732882 216.02462494 397.08056641 209.07666016 C400.38883866 207.22096432 403.69425088 205.36018561 407 203.5 C410.91750444 201.29604805 414.83518259 199.09240853 418.75390625 196.890625 C419.37813477 196.5397583 420.00236328 196.1888916 420.64550781 195.82739258 C421.92984059 195.10556877 423.21434757 194.38405481 424.49902344 193.6628418 C428.57337874 191.37310926 432.63880543 189.06828131 436.69921875 186.75390625 C441.61786278 183.95106116 446.55171898 181.17658072 451.49365234 178.41503906 C453.56124874 177.24771112 455.60608258 176.05293953 457.64453125 174.8359375 C466.14697971 170.03268014 474.37612924 169.52488636 483.8125 172 C490.90429955 176.44975658 496.69022377 181.07929931 499.41015625 189.2265625 C501.28903995 198.06104876 500.88025119 206.28890824 496 214 C495.37544922 214.99580078 495.37544922 214.99580078 494.73828125 216.01171875 C489.80961303 222.59621252 482.5815571 225.85761693 475.49755859 229.63525391 C470.72299923 232.24422623 466.06012 235.04722805 461.375 237.8125 C452.60096255 242.96350334 443.73998304 247.91534389 434.78735352 252.74804688 C429.39651976 255.66668517 424.0759429 258.67035859 418.8125 261.8125 C411.5415416 266.15180655 404.15971913 270.27798349 396.75 274.375 C385.95451857 280.34593475 375.21581957 286.40611146 364.51953125 292.55273438 C360.22452464 295.01986608 355.92498011 297.47904969 351.625 299.9375 C350.76124756 300.43161377 349.89749512 300.92572754 349.00756836 301.43481445 C343.53679914 304.56104067 338.05334402 307.66393575 332.56298828 310.75561523 C323.74663571 315.72070834 314.97526971 320.75144464 306.25 325.875 C296.60527317 331.53557269 286.85854347 336.99149501 277.06738281 342.39404297 C268.66032665 347.04524138 260.35438631 351.84946748 252.07397461 356.72167969 C244.46715839 361.18199722 236.78152898 365.48841222 229.0625 369.75 C221.14875518 374.12170804 213.2726103 378.53232353 205.50048828 383.15112305 C199.00997073 387.00788775 192.47678841 390.78909498 185.9375 394.5625 C184.897146 395.16384766 183.85679199 395.76519531 182.78491211 396.38476562 C174.22593857 401.32096734 165.61822228 406.16818501 157 411 C152.79015035 439.85084813 152.79015035 439.85084813 159.14599609 466.72412109 C164.56352069 471.86367543 170.94062759 474.18223537 178.05517578 476.12792969 C182.0736782 477.31795544 185.09180769 479.20297231 188.625 481.4375 C193.00125418 483.98112112 195.08758092 484.12770329 200 483 C202.47998858 481.88771182 202.47998858 481.88771182 204.8515625 480.40234375 C205.77066406 479.85642578 206.68976562 479.31050781 207.63671875 478.74804688 C208.62285156 478.15056641 209.60898437 477.55308594 210.625 476.9375 C212.78304329 475.65358399 214.94193216 474.37108843 217.1015625 473.08984375 C218.22981445 472.41808105 219.35806641 471.74631836 220.52050781 471.05419922 C225.7203906 467.97246904 230.97748852 464.99092742 236.23251343 462.00457764 C245.62671292 456.66524275 254.98886302 451.27439301 264.3125 445.8125 C273.89860956 440.20036638 283.54005402 434.69468056 293.2265625 429.2578125 C297.26032262 426.99132884 301.27186176 424.69000518 305.2734375 422.3671875 C306.30525146 421.77236572 307.33706543 421.17754395 308.40014648 420.56469727 C310.36766847 419.4296675 312.33102325 418.28737055 314.28930664 417.13647461 C322.81756491 412.23889903 331.05119162 409.63203885 341 411 C344.60315854 412.28464886 347.75753018 413.98377331 351 416 C351.9075 416.53625 352.815 417.0725 353.75 417.625 C358.99573976 423.16216975 362.35663935 429.35955543 362.625 437.0625 C362.00298048 447.52865451 357.62041435 454.96248208 350 462 C345.93610757 464.76823447 341.67011457 467.0424725 337.3125 469.3125 C336.10469978 469.95938641 334.89800803 470.6083463 333.69238281 471.25927734 C331.2697452 472.56635905 328.84351947 473.86634731 326.41455078 475.16162109 C321.6429112 477.73065055 316.94311859 480.41594932 312.25 483.125 C310.55237603 484.09946841 308.8544588 485.07342613 307.15625 486.046875 C306.31449219 486.52962891 305.47273437 487.01238281 304.60546875 487.50976562 C287.8019659 497.12076463 270.89683463 506.55444501 254 516 C256.97553085 518.33925655 260.03449737 520.22061244 263.34765625 522.046875 C264.94673828 522.93149414 264.94673828 522.93149414 266.578125 523.83398438 C267.72796875 524.46626953 268.8778125 525.09855469 270.0625 525.75 C271.2749152 526.419604 272.48715172 527.0895316 273.69921875 527.75976562 C276.21692025 529.15164549 278.73538418 530.54213099 281.25439453 531.93164062 C287.01015422 535.1080765 292.75452113 538.3050191 298.5 541.5 C305.29519212 545.276478 312.09131392 549.05125466 318.890625 552.8203125 C339.48091798 564.23808749 359.97458598 575.8188315 380.40722656 587.51611328 C384.77014629 590.01308372 389.13518651 592.50634193 393.5 595 C395.25001001 595.99998248 397.00001002 596.99998247 398.75 598 C399.61625 598.495 400.4825 598.99 401.375 599.5 C430.00390626 615.85937501 430.00390626 615.85937501 432.51904297 617.29663086 C434.22505766 618.271473 435.93111283 619.24624429 437.63720703 620.22094727 C442.67186605 623.09743245 447.7055277 625.97565085 452.73828125 628.85546875 C455.11707227 630.21634737 457.49599106 631.57700238 459.875 632.9375 C460.47166473 633.27872894 461.06832947 633.61995789 461.68307495 633.9715271 C469.64985214 638.52656617 477.6302168 643.05675546 485.625 647.5625 C495.89353623 653.35282593 506.10979194 659.23129506 516.3125 665.13671875 C520.34452051 667.46982067 524.38167047 669.79340553 528.42695618 672.10339355 C530.81539767 673.46742904 533.20208959 674.83451054 535.5887146 676.20172119 C537.27012896 677.16326933 538.95400441 678.12050985 540.63793945 679.07763672 C542.17260864 679.95766357 542.17260864 679.95766357 543.73828125 680.85546875 C544.63587158 681.36746826 545.53346191 681.87946777 546.45825195 682.40698242 C550.93636801 685.21360112 554.36260636 688.06253188 557.25 692.5 C557.75015625 693.2528125 558.2503125 694.005625 558.765625 694.78125 C562.2797404 701.09776123 562.11336844 709.75647571 560.31640625 716.60546875 C556.6190417 725.51903224 550.79441393 731.13045787 542 735 C539.24303823 735.84582516 536.69275803 736.18704354 533.8125 736.25 C533.11769531 736.27578125 532.42289063 736.3015625 531.70703125 736.328125 C522.93245598 735.26454012 515.5400726 730.76940004 508 726.4375 C506.89495117 725.81053223 505.78990234 725.18356445 504.65136719 724.53759766 C497.80964123 720.64468546 491.0025992 716.69378297 484.23217773 712.67822266 C478.00166674 708.98346304 471.71434875 705.39213744 465.41992188 701.80761719 C459.44365597 698.40213521 453.48337619 694.9701519 447.53051758 691.52392578 C436.82344648 685.32614361 426.07065653 679.22191632 415.26147461 673.20410156 C408.05848123 669.1827185 400.92383996 665.05601018 393.8125 660.875 C385.31784654 655.88363875 376.74269667 651.0796969 368.07519531 646.39575195 C360.09381067 642.07573066 352.21626497 637.58771748 344.34765625 633.06640625 C338.7477527 629.84917634 333.12524344 626.67265805 327.5 623.5 C319.33723079 618.89448544 311.19475613 614.25507657 303.06347656 609.59423828 C296.15186335 605.64048431 289.20397083 601.75365882 282.25 597.875 C275.32801279 594.01321582 268.43435867 590.11973579 261.625 586.0625 C251.68547332 580.14962368 241.54694805 574.59389659 231.4233551 569.0042572 C227.07302469 566.59991892 222.73588933 564.17271625 218.40234375 561.73828125 C216.55331801 560.70198944 214.70404915 559.66613306 212.85467529 558.63046265 C211.09491383 557.6431851 209.33771398 556.65134608 207.58056641 555.65942383 C205.98027588 554.76453247 205.98027588 554.76453247 204.34765625 553.8515625 C203.40929932 553.32385254 202.47094238 552.79614258 201.50415039 552.25244141 C199.26193127 551.13100394 197.48042061 550.31345434 195 550 C192.72310367 551.11083083 190.73773413 552.25393697 188.625 553.625 C187.30156601 554.45047823 185.97729102 555.27460912 184.65234375 556.09765625 C183.92257324 556.55543457 183.19280273 557.01321289 182.44091797 557.48486328 C177.72910233 560.40960101 172.95642903 563.23223584 168.1875 566.0625 C167.21441895 566.64660645 166.24133789 567.23071289 165.23876953 567.83251953 C164.32853027 568.37376465 163.41829102 568.91500977 162.48046875 569.47265625 C161.25686646 570.20367554 161.25686646 570.20367554 160.00854492 570.94946289 C158 572 158 572 156 572 C156 588.5 156 605 156 622 C157.98 622.66 159.96 623.32 162 624 C163.9050293 624.90698242 163.9050293 624.90698242 165.57421875 625.85546875 C166.22777344 626.22285156 166.88132812 626.59023438 167.5546875 626.96875 C168.25851562 627.3709375 168.96234375 627.773125 169.6875 628.1875 C171.28495842 629.08759078 172.88262869 629.98730563 174.48046875 630.88671875 C175.35493652 631.38091309 176.2294043 631.87510742 177.13037109 632.38427734 C181.98901049 635.11989718 186.86697416 637.82069656 191.74301147 640.52514648 C194.66550289 642.14667161 197.58652372 643.77084057 200.5078125 645.39453125 C204.33403151 647.52039316 208.16153227 649.64386165 211.9921875 651.76171875 C220.59446046 656.52062273 229.1491419 661.35570372 237.67529297 666.24975586 C243.66779611 669.68397587 249.68775394 673.065634 255.72290039 676.42431641 C260.82454762 679.26646183 265.91455806 682.12897835 271 685 C272.11616699 685.62696777 272.11616699 685.62696777 273.25488281 686.26660156 C281.97718013 691.20448459 290.41895427 696.62498567 293.55859375 706.67578125 C295.12524563 714.92496593 294.86624599 722.42932064 290.60546875 729.78125 C285.62751834 736.66075324 279.22601442 740.90292804 271 743 C259.57424426 744.5444954 250.74848069 739.57523679 241.25 733.8125 C232.0670549 728.34675238 222.80898542 723.07062129 213.4375 717.9375 C210.97882473 716.58916418 208.52050874 715.24017551 206.0625 713.890625 C205.46394699 713.56206512 204.86539398 713.23350525 204.248703 712.89498901 C197.61805847 709.24958614 191.03369457 705.52327975 184.46069336 701.77514648 C178.21443411 698.22217793 171.9254414 694.74995029 165.62719727 691.2902832 C164.70020271 690.7807737 163.77320816 690.27126419 162.81812286 689.746315 C160.54555918 688.4972811 158.27284779 687.24851681 156 686 C156.00341748 687.04431355 156.00341748 687.04431355 156.00690401 688.10972434 C156.14121676 729.38663743 156.24414168 770.66352512 156.30639198 811.94061284 C156.31389608 816.89847859 156.32166203 821.8563439 156.32958984 826.81420898 C156.33116371 827.80121706 156.33273757 828.78822513 156.33435912 829.80514254 C156.36045619 845.77980036 156.4077577 861.75432841 156.46291678 877.72890929 C156.5190561 894.12430423 156.55235909 910.51963129 156.56453097 926.9151184 C156.57275746 937.02940876 156.5987255 947.14333235 156.6474988 957.25750979 C156.67925186 964.19627572 156.68879215 971.13485246 156.68100826 978.07368574 C156.67717094 982.07520147 156.68298942 986.07607697 156.71523285 990.07747841 C156.74458137 993.74654764 156.74581094 997.41455046 156.72539337 1001.08367034 C156.72168546 1003.02811376 156.74743083 1004.97254591 156.77448785 1006.91680461 C156.68253311 1015.96045939 154.58607911 1023.43299421 148.02308214 1029.96869594 C141.22808632 1035.6373089 133.4439777 1037.61232287 124.7109375 1037.35546875 C118.36648086 1036.52355873 112.51211572 1033.51211572 108 1029 C102.82607738 1022.23509617 99.7478773 1016.30881638 99.75390434 1007.62384224 C99.74992225 1006.35439015 99.74594015 1005.08493805 99.74183738 1003.77701771 C99.74754277 1002.37585002 99.75343395 1000.97468307 99.75949097 999.57351685 C99.75861858 998.07928484 99.75686698 996.58505313 99.75431263 995.09082305 C99.74984167 990.98837177 99.75783935 986.88602496 99.76786876 982.78358698 C99.77650456 978.35829327 99.773583 973.93300546 99.77206421 969.50770569 C99.77101544 961.84175343 99.7772912 954.17583521 99.78853989 946.50989151 C99.80479301 935.42622411 99.8100027 924.34257317 99.81251587 913.25889514 C99.81689326 895.27642858 99.83020358 877.29398015 99.84912109 859.31152344 C99.86747873 841.84309988 99.88163581 824.37468125 99.89013672 806.90625 C99.89092489 805.29115641 99.89092489 805.29115641 99.89172898 803.64343466 C99.89433905 798.24180877 99.89686647 792.84018285 99.89935279 787.43855691 C99.92008668 742.62569204 99.95531343 697.81284696 100 653 C99.06111938 652.85744278 98.12223877 652.71488556 97.15490723 652.56800842 C93.97455681 651.99541922 91.89868363 651.12212423 89.09375 649.55859375 C88.19132568 649.06061279 87.28890137 648.56263184 86.35913086 648.04956055 C85.41561768 647.51758057 84.47210449 646.98560059 83.5 646.4375 C82.03929077 645.63082886 82.03929077 645.63082886 80.54907227 644.80786133 C76.20124164 642.39783461 71.88184089 639.95169688 67.62109375 637.390625 C66.98816406 637.01365479 66.35523438 636.63668457 65.703125 636.24829102 C64.05254185 635.25661737 62.41442104 634.24428299 60.77734375 633.23046875 C57.47349555 631.76673854 56.41515812 632.04793599 53 633 C50.71899726 634.05287693 50.71899726 634.05287693 48.48046875 635.40625 C47.63009033 635.89899414 46.77971191 636.39173828 45.90356445 636.89941406 C44.55911255 637.6917041 44.55911255 637.6917041 43.1875 638.5 C41.31009782 639.58888999 39.4324913 640.67742775 37.5546875 641.765625 C36.62237305 642.30896484 35.69005859 642.85230469 34.72949219 643.41210938 C30.77055576 645.71523304 26.79631023 647.99023479 22.8125 650.25 C22.14822998 650.63220703 21.48395996 651.01441406 20.79956055 651.40820312 C16.22939909 654 16.22939909 654 14 654 C14.00368717 654.73715146 14.00737434 655.47430292 14.01117325 656.2337923 C14.09967096 674.2048266 14.16578079 692.17581717 14.20724869 710.1470232 C14.22783743 718.83792276 14.25588711 727.52867649 14.30175781 736.21948242 C14.34173894 743.79807201 14.3674596 751.37655593 14.37635398 758.95524806 C14.38154974 762.9648187 14.39368376 766.97408717 14.42292023 770.98356056 C14.4502681 774.76502055 14.45840639 778.5460567 14.45243073 782.3276062 C14.45403906 784.36162247 14.4754597 786.39559361 14.49768066 788.42948914 C14.45023243 799.08787387 12.59770914 808.34262045 5.0703125 816.27734375 C-2.70195762 822.74445908 -11.1329609 824.69313911 -21 824 C-28.3777306 822.77932094 -34.38755063 817.65833919 -39 812 C-43.33448264 804.42733887 -44.72044485 798.02445646 -44.56762695 789.37817383 C-44.56835709 788.27441406 -44.56908722 787.1706543 -44.56983948 786.03344727 C-44.56638592 782.4241231 -44.5276287 778.81612696 -44.48828125 775.20703125 C-44.47894524 772.6892721 -44.47183285 770.17150381 -44.46684265 767.6537323 C-44.44977278 761.72879642 -44.41046053 755.80427899 -44.3600952 749.87955731 C-44.29843736 742.46340839 -44.27180873 735.04719949 -44.24414062 727.63085938 C-44.19066351 714.42033597 -44.10639974 701.21019781 -44 688 C-47.20432408 689.75787336 -50.40789048 691.51712318 -53.61132812 693.27661133 C-54.51312805 693.77131172 -55.41492798 694.26601212 -56.34405518 694.77570343 C-62.78933508 698.31698416 -69.16941225 701.94467059 -75.5 705.6875 C-84.25837298 710.82990589 -93.05142842 715.90799122 -101.875 720.9375 C-131.18780873 737.65362257 -160.32802865 754.6629846 -189.43421936 771.73553467 C-194.91830079 774.95227225 -200.40313274 778.16772828 -205.88818359 781.3828125 C-208.29358312 782.79275381 -210.69884939 784.20292204 -213.10400391 785.61328125 C-218.62399812 788.84997373 -224.14470936 792.08541865 -229.66841125 795.31578064 C-241.71259116 802.35955425 -253.7449257 809.41771898 -265.69335938 816.62329102 C-272.94222072 820.9861141 -280.25071831 825.24370458 -287.56518555 829.49536133 C-294.85439866 833.7365804 -302.11578176 838.02252542 -309.36584473 842.33013916 C-314.24065563 845.22556238 -319.11960474 848.11400098 -324 851 C-324.80872559 851.47824219 -325.61745117 851.95648437 -326.45068359 852.44921875 C-328.40068229 853.59809629 -330.35502962 854.73891452 -332.3125 855.875 C-333.79169922 856.73738281 -333.79169922 856.73738281 -335.30078125 857.6171875 C-342.61811413 861.36586455 -349.62596862 862.17927935 -357.65234375 860.41796875 C-365.27369441 857.84620327 -370.02913113 852.88142764 -374.16015625 846.09375 C-377.31218633 839.17394442 -377.22876813 830.88179022 -374.96875 823.7421875 C-369.74771463 812.16889243 -359.73058716 807.00728665 -349.0723877 800.89373779 C-346.4838083 799.40883772 -343.90388032 797.90917618 -341.32321167 796.4105835 C-340.02638782 795.6577538 -338.72912893 794.90567299 -337.431427 794.15435791 C-332.17474594 791.10993232 -326.95257938 788.01104582 -321.75 784.875 C-320.97068115 784.40602295 -320.1913623 783.9370459 -319.38842773 783.45385742 C-316.92491103 781.9704089 -314.46240643 780.48529068 -312 779 C-298.72447067 770.99695762 -285.42233141 763.05027339 -272.01611328 755.26782227 C-264.84580045 751.0977162 -257.72746005 746.8469822 -250.625 742.5625 C-240.98878036 736.75319095 -231.2777739 731.08704329 -221.52001953 725.48461914 C-214.65060902 721.5380876 -207.81202509 717.54471756 -201 713.5 C-192.89075746 708.68541664 -184.73800565 703.95114987 -176.5625 699.25 C-169.84261275 695.38567685 -163.12749962 691.52111444 -156.5 687.5 C-148.58789886 682.70918646 -140.56060471 678.12142207 -132.54174805 673.51220703 C-126.76460528 670.18697412 -121.00754717 666.83891326 -115.3125 663.375 C-108.21988221 659.06745227 -100.98935272 655.01052234 -93.75805664 650.94140625 C-87.56688683 647.45611226 -81.39552832 643.94015306 -75.25 640.375 C-74.49364258 639.93712158 -73.73728516 639.49924316 -72.95800781 639.0480957 C-68.86236577 636.67355057 -64.77837422 634.28047726 -60.703125 631.87109375 C-59.83268555 631.35949707 -58.96224609 630.84790039 -58.06542969 630.32080078 C-56.39098944 629.3363421 -54.71960587 628.34666043 -53.05175781 627.35107422 C-52.30249023 626.91166504 -51.55322266 626.47225586 -50.78125 626.01953125 C-50.12189453 625.62870361 -49.46253906 625.23787598 -48.78320312 624.83520508 C-47 624 -47 624 -44 624 C-44 607.5 -44 591 -44 574 C-45.32 573.67 -46.64 573.34 -48 573 C-49.86031679 572.06388018 -51.69393699 571.07398919 -53.5078125 570.05078125 C-54.57773437 569.44943359 -55.64765625 568.84808594 -56.75 568.22851562 C-57.86375 567.59623047 -58.9775 566.96394531 -60.125 566.3125 C-61.21554687 565.69955078 -62.30609375 565.08660156 -63.4296875 564.45507812 C-64.50734375 563.84728516 -65.585 563.23949219 -66.6953125 562.61328125 C-67.75911133 562.01338379 -68.82291016 561.41348633 -69.91894531 560.79541016 C-71.91445977 559.63257234 -73.88534658 558.42594875 -75.82324219 557.16943359 C-76.68336914 556.6120752 -77.54349609 556.0547168 -78.4296875 555.48046875 C-79.17202637 554.97797607 -79.91436523 554.4754834 -80.67919922 553.95776367 C-83.87682438 552.63814622 -85.68890932 553.0885436 -89 554 C-91.90259623 555.32467136 -91.90259623 555.32467136 -94.796875 557.0703125 C-96.46194092 558.03239624 -96.46194092 558.03239624 -98.16064453 559.01391602 C-99.35717703 559.71747349 -100.55362667 560.42117189 -101.75 561.125 C-103.00192667 561.85236779 -104.25437693 562.57883507 -105.50732422 563.30444336 C-108.08475987 564.79875454 -110.6592665 566.29792831 -113.23144531 567.80126953 C-117.78787343 570.46284601 -122.36137622 573.09452884 -126.93505859 575.72631836 C-130.14612376 577.57465918 -133.35466013 579.42731798 -136.5625 581.28125 C-140.89408507 583.7842949 -145.22744603 586.28421773 -149.5625 588.78125 C-160.202915 594.91128627 -170.83278165 601.05838303 -181.4375 607.25 C-182.41831543 607.82202148 -183.39913086 608.39404297 -184.40966797 608.98339844 C-189.13884512 611.74215113 -193.86397571 614.50742297 -198.58203125 617.28515625 C-200.30463447 618.29436135 -202.027288 619.30348059 -203.75 620.3125 C-204.53044678 620.77495117 -205.31089355 621.23740234 -206.11499023 621.71386719 C-206.83501221 622.13442383 -207.55503418 622.55498047 -208.296875 622.98828125 C-208.91916992 623.35477783 -209.54146484 623.72127441 -210.18261719 624.09887695 C-216.84789409 627.40375834 -225.89618998 627.13533206 -232.89453125 625.19921875 C-240.74021657 621.69216126 -245.85443482 615.58958505 -248.9375 607.625 C-251.25571558 599.24151597 -250.73799459 592.21897934 -246.77734375 584.484375 C-241.24824937 576.75579473 -234.28748266 572.49070236 -226.0625 567.9375 C-224.31394939 566.9497016 -222.5654094 565.96188338 -220.81771851 564.9725647 C-219.03398468 563.96418144 -217.24777519 562.96028372 -215.46142578 561.95654297 C-210.27564851 559.02532425 -205.13791151 556.01406972 -200 553 C-190.49083914 547.44077402 -180.95894454 541.92175934 -171.41210938 536.42749023 C-166.33398755 533.50448318 -161.26143934 530.57323463 -156.20703125 527.609375 C-155.32249268 527.09205811 -154.4379541 526.57474121 -153.52661133 526.04174805 C-151.88502193 525.08065131 -150.24541511 524.1161573 -148.6081543 523.14770508 C-143.22307717 520 -143.22307717 520 -141 520 C-141 519.34 -141 518.68 -141 518 C-142.07930786 517.59056152 -142.07930786 517.59056152 -143.18041992 517.17285156 C-145.9533802 516.01939229 -148.4947937 514.70261313 -151.11328125 513.234375 C-152.59538086 512.40486328 -152.59538086 512.40486328 -154.10742188 511.55859375 C-155.16509766 510.96175781 -156.22277344 510.36492188 -157.3125 509.75 C-158.42044922 509.12738281 -159.52839844 508.50476563 -160.66992188 507.86328125 C-169.15633677 503.07854137 -177.57506967 498.18255464 -185.97802734 493.25292969 C-196.19149308 487.27439683 -206.51858327 481.50549737 -216.85888672 475.75 C-222.07770035 472.84245639 -227.28840177 469.92045012 -232.5 467 C-234.58851944 465.83068947 -236.6770611 464.66141861 -238.765625 463.4921875 C-242.88161206 461.187389 -246.99608511 458.87992082 -251.109375 456.5703125 C-265.80551443 448.32219214 -280.54831574 440.16116664 -295.31054688 432.03222656 C-300.77369933 429.02356005 -306.23402844 426.00977652 -311.69454956 422.99633789 C-314.69862018 421.33854141 -317.70281695 419.68097358 -320.70703125 418.0234375 C-321.30290543 417.69466614 -321.8987796 417.36589478 -322.51271057 417.02716064 C-326.8870012 414.61377414 -331.26179888 412.2013081 -335.63671875 409.7890625 C-372.13804939 389.66204856 -372.13804939 389.66204856 -381.625 384.1875 C-387.83765462 380.61898558 -394.13027105 377.21062732 -400.4375 373.8125 C-408.79466628 369.30670226 -417.10924692 364.73403522 -425.375 360.0625 C-426.29466553 359.54341064 -427.21433105 359.02432129 -428.16186523 358.48950195 C-430.78095081 357.003847 -433.39073544 355.50281989 -436 354 C-436.91104492 353.48816162 -437.82208984 352.97632324 -438.76074219 352.44897461 C-440.08960449 351.68532593 -440.08960449 351.68532593 -441.4453125 350.90625 C-442.23695801 350.45701172 -443.02860352 350.00777344 -443.84423828 349.54492188 C-448.92353855 345.90485256 -452.11399924 339.86281683 -454 334 C-454.89122577 323.55992672 -454.48325563 316.10423952 -447.75 307.8125 C-441.2601863 300.7625129 -434.42443592 298.98083857 -425 298.5 C-417.62580705 298.59953916 -412.32400346 301.22768004 -406.07910156 304.81494141 C-403.81821601 306.10361431 -401.534195 307.34177565 -399.2421875 308.57421875 C-387.36051941 314.97522281 -375.56755351 321.54158334 -363.75512695 328.06933594 C-356.39331983 332.13638082 -349.01646534 336.17456738 -341.625 340.1875 C-333.11035076 344.81166625 -324.67538275 349.56741361 -316.25244141 354.35620117 C-310.71328445 357.4957489 -305.14434243 360.55408822 -299.5 363.5 C-291.98603999 367.42452894 -284.61130025 371.57529236 -277.24169922 375.76367188 C-269.39434821 380.22124682 -261.51708742 384.62232594 -253.625 389 C-252.5023877 389.62277832 -251.37977539 390.24555664 -250.22314453 390.88720703 C-249.15177246 391.48130371 -248.08040039 392.07540039 -246.9765625 392.6875 C-245.44080566 393.5391272 -245.44080566 393.5391272 -243.87402344 394.40795898 C-242.07610262 395.40390204 -240.27740024 396.39843698 -238.47753906 397.39086914 C-233.76747732 399.99261276 -229.12122387 402.68165484 -224.5 405.4375 C-217.37641894 409.65852253 -210.17194204 413.72242901 -202.9375 417.75 C-193.51692941 422.99699054 -184.17718253 428.36574635 -174.8762207 433.8215332 C-168.1598773 437.75555625 -161.40848689 441.62051172 -154.625 445.4375 C-143.16460757 451.88759481 -131.77383596 458.45490547 -120.390625 465.04003906 C-116.84535924 467.08939056 -113.29805228 469.13516599 -109.75 471.1796875 C-108.5557443 471.86799932 -107.36148973 472.5563131 -106.16723633 473.24462891 C-103.89901619 474.55189383 -101.63059204 475.85880258 -99.36206055 477.16552734 C-98.33894775 477.75543457 -97.31583496 478.3453418 -96.26171875 478.953125 C-95.36412842 479.47036133 -94.46653809 479.98759766 -93.54174805 480.52050781 C-91 482 -91 482 -88.48364258 483.75292969 C-86.09828363 485.2042409 -86.09828363 485.2042409 -83.5559082 484.88769531 C-80.49988216 483.82630352 -77.90022756 482.42972779 -75.10546875 480.796875 C-73.98462891 480.14589844 -72.86378906 479.49492188 -71.70898438 478.82421875 C-70.53512393 478.13286737 -69.36129601 477.44146076 -68.1875 476.75 C-67.02575249 476.07359686 -65.86364595 475.39780995 -64.70117188 474.72265625 C-59.86490014 471.90126678 -55.06124603 469.0623728 -50.36328125 466.015625 C-47 464 -47 464 -44 464 C-44 448.16 -44 432.32 -44 416 C-45.98 415.34 -47.96 414.68 -50 414 C-52.51500601 412.77200265 -54.97655941 411.51482173 -57.4375 410.1875 C-58.1699292 409.79643066 -58.9023584 409.40536133 -59.65698242 409.00244141 C-66.73854254 405.19432859 -73.71760233 401.20772924 -80.70361328 397.22802734 C-88.50876538 392.79987118 -96.39346982 388.53196004 -104.3125 384.3125 C-114.23517377 379.02447251 -124.1086887 373.66467884 -133.91552734 368.16503906 C-136.83061596 366.53575787 -139.75549489 364.9243905 -142.6796875 363.31152344 C-145.67877105 361.65242834 -148.66861873 359.9770239 -151.65869141 358.30175781 C-154.12186654 356.93224271 -156.59782607 355.58763291 -159.07421875 354.2421875 C-170.3112632 348.05399832 -179.45899304 342.64332842 -184 330 C-184.30581344 327.24767907 -184.47816706 324.80063962 -184.4375 322.0625 C-184.43137695 321.35955811 -184.42525391 320.65661621 -184.41894531 319.93237305 C-184.25137798 314.37751595 -183.2606037 310.45767848 -180 306 C-179.46375 305.13375 -178.9275 304.2675 -178.375 303.375 C-172.0001769 297.0001769 -164.89380265 293.90838097 -156 293.625 C-154.96875 293.57601563 -153.9375 293.52703125 -152.875 293.4765625 C-142.47378428 294.88156543 -133.05634181 300.96284494 -124.0625 306.0625 C-122.87137693 306.73162414 -121.67996554 307.40023527 -120.48828125 308.06835938 C-112.63817775 312.47700551 -104.8200676 316.94234575 -97.01416016 321.42871094 C-88.58783812 326.26271624 -80.09097371 330.96847925 -71.5859375 335.66210938 C-65.21478664 339.18502613 -58.90670659 342.78896168 -52.65844727 346.52612305 C-50.15156594 347.91596992 -47.66678758 348.96260113 -45 350 C-45.00227832 349.301675 -45.00455664 348.60334999 -45.00690401 347.88386363 C-45.14121614 306.48169364 -45.24414137 265.07954898 -45.30639198 223.67720489 C-45.31389608 218.70431787 -45.32166203 213.73143129 -45.32958984 208.75854492 C-45.33116371 207.76854623 -45.33273757 206.77854754 -45.33435912 205.75854889 C-45.36045634 189.73539234 -45.40775794 173.71236515 -45.46291678 157.6892853 C-45.51905568 141.24416979 -45.552359 124.79912196 -45.56453097 108.35391456 C-45.57275754 98.20891522 -45.59872607 88.06428154 -45.6474988 77.91939477 C-45.67925133 70.95960418 -45.68879227 64.00000221 -45.68100826 57.04014447 C-45.67717086 53.02647791 -45.68299035 49.01344963 -45.71523285 44.999897 C-45.7445802 41.31972624 -45.74581166 37.6406187 -45.72539337 33.96039746 C-45.72168525 32.00998934 -45.74743164 30.05959247 -45.77448785 28.1093685 C-45.67038112 17.84022109 -42.56453734 10.28216698 -35.25 3 C-26.06696249 -4.23880272 -10.19672824 -6.36033543 0 0 Z " fill="#020101" transform="translate(589,112)"/>
<path d="M0 0 C2.01237966 0.96622596 3.98963584 2.00720235 5.9375 3.09765625 C7.08089844 3.73509766 8.22429688 4.37253906 9.40234375 5.02929688 C9.99515137 5.36437256 10.58795898 5.69944824 11.19873047 6.04467773 C13.54379936 7.36977833 15.89849438 8.67733488 18.25308228 9.98542786 C19.42370995 10.64697984 20.58668576 11.32224695 21.74179077 12.01054382 C24.71315737 13.77740703 27.43124304 15.1635779 30.68994141 16.3996582 C34.8072222 18.18089517 37.10323086 19.54419075 40 23 C42.76906005 31.00245252 42.46683523 39.70055785 42.375 48.0625 C42.37716522 49.22917206 42.37933044 50.39584412 42.38156128 51.59786987 C42.23230663 71.54109214 42.23230663 71.54109214 37.76318359 77.69140625 C32.15414486 83.0376597 25.54128747 85.56503982 18.24121094 87.87158203 C13.4231289 89.54898299 9.42222905 92.20527896 5.1875 95 C-1.27963057 99.09996595 -1.27963057 99.09996595 -3.94580078 98.72998047 C-6.13671265 97.95141778 -8.06352634 97.00971906 -10.09765625 95.8828125 C-10.90138672 95.439375 -11.70511719 94.9959375 -12.53320312 94.5390625 C-13.36787109 94.07242188 -14.20253906 93.60578125 -15.0625 93.125 C-15.83916016 92.69703125 -16.61582031 92.2690625 -17.41601562 91.828125 C-19.17102025 90.85510756 -20.90779709 89.8488413 -22.63012695 88.8190918 C-25.37384858 87.33800291 -27.95236652 86.21741216 -30.84448242 85.09692383 C-43.45199902 79.75845702 -43.45199902 79.75845702 -46.10177612 73.32495117 C-47.6182602 66.60978222 -47.57610693 59.92490192 -47.31225586 53.07543945 C-47.18731483 49.43210028 -47.25001069 45.8255074 -47.33398438 42.18164062 C-47.32603021 26.13421617 -47.32603021 26.13421617 -43.52090454 21.00698853 C-39.84252183 17.69009546 -35.64231317 15.73927222 -31.08627319 13.89181519 C-27.94814147 12.55036406 -25.23624393 10.76825611 -22.36328125 8.92578125 C-20.34774186 7.71903338 -18.33084295 6.51455291 -16.3125 5.3125 C-15.28189453 4.68150391 -14.25128906 4.05050781 -13.18945312 3.40039062 C-12.19494141 2.81064453 -11.20042969 2.22089844 -10.17578125 1.61328125 C-9.29833252 1.08516846 -8.42088379 0.55705566 -7.5168457 0.01293945 C-4.41075208 -1.237151 -3.15265582 -1.06045251 0 0 Z " fill="#FCFCFC" transform="translate(648,581)"/>
<path d="M0 0 C0.99 0.33 1.98 0.66 3 1 C3 19.81 3 38.62 3 58 C2.34 58 1.68 58 1 58 C0.67 58.66 0.34 59.32 0 60 C0 40.2 0 20.4 0 0 Z " fill="#F3F3F3" transform="translate(685,404)"/>
<path d="M0 0 C0.33 0 0.66 0 1 0 C1 16.17 1 32.34 1 49 C0.01 49 -0.98 49 -2 49 C-2.05070815 42.66458555 -2.08573696 36.32922343 -2.10986328 29.99365234 C-2.1199211 27.83835901 -2.13356899 25.68307932 -2.15087891 23.52783203 C-2.17513662 20.42997876 -2.18648532 17.33230591 -2.1953125 14.234375 C-2.20563507 13.27070007 -2.21595764 12.30702515 -2.22659302 11.31414795 C-2.22674408 10.41351624 -2.22689514 9.51288452 -2.22705078 8.58496094 C-2.231492 7.79442322 -2.23593323 7.0038855 -2.24050903 6.18939209 C-1.97196847 3.74482453 -1.21882157 2.11843965 0 0 Z " fill="#F3F3F3" transform="translate(687,606)"/>
<path d="M0 0 C1.38294718 0.01329757 2.76582404 0.03715018 4.1484375 0.0703125 C4.85484375 0.07933594 5.56125 0.08835937 6.2890625 0.09765625 C8.03399848 0.12123647 9.77876045 0.15710789 11.5234375 0.1953125 C11.8534375 1.1853125 12.1834375 2.1753125 12.5234375 3.1953125 C9.472374 4.21233367 7.28144689 4.36113333 4.0859375 4.3828125 C2.66474609 4.40408203 2.66474609 4.40408203 1.21484375 4.42578125 C-1.52157894 4.19145768 -3.14084373 3.59232633 -5.4765625 2.1953125 C-3.4765625 0.1953125 -3.4765625 0.1953125 0 0 Z " fill="#222222" transform="translate(569.4765625,931.8046875)"/>
<path d="M0 0 C1.60294922 0.04060547 1.60294922 0.04060547 3.23828125 0.08203125 C4.04652344 0.11683594 4.85476563 0.15164063 5.6875 0.1875 C5.6875 0.8475 5.6875 1.5075 5.6875 2.1875 C3.60585982 2.55148622 1.52209438 2.90333287 -0.5625 3.25 C-2.30273438 3.54583984 -2.30273438 3.54583984 -4.078125 3.84765625 C-6.93772624 4.1481216 -8.64575929 4.1314206 -11.3125 3.1875 C-7.38423635 0.41074962 -4.78125108 -0.15762366 0 0 Z " fill="#DBDCDC" transform="translate(926.3125,519.8125)"/>
<path d="M0 0 C0.33 0.66 0.66 1.32 1 2 C1.66 2.33 2.32 2.66 3 3 C1.89718873 4.27200971 0.79269231 5.54255853 -0.3125 6.8125 C-1.23482422 7.87404297 -1.23482422 7.87404297 -2.17578125 8.95703125 C-3.73334335 10.70136739 -5.32658875 12.36778041 -7 14 C-7 10.41628085 -6.25521663 9.72412796 -4.0625 7 C-2.09824167 4.54815981 -1.00664658 3.01993973 0 0 Z " fill="#D8D8D9" transform="translate(948,560)"/>
<path d="M0 0 C0.66 0.33 1.32 0.66 2 1 C2 1.66 2 2.32 2 3 C0.63875 3.6496875 0.63875 3.6496875 -0.75 4.3125 C-3.43218449 5.70517271 -5.66139605 7.11112757 -8 9 C-8.66 8.67 -9.32 8.34 -10 8 C-8.71064081 6.85157077 -7.41843421 5.70633773 -6.125 4.5625 C-5.04605469 3.60537109 -5.04605469 3.60537109 -3.9453125 2.62890625 C-2 1 -2 1 0 0 Z " fill="#2F2F2F" transform="translate(560,111)"/>
<path d="M0 0 C-0.33 0.99 -0.66 1.98 -1 3 C-1.99 3.33 -2.98 3.66 -4 4 C-4.33 4.66 -4.66 5.32 -5 6 C-6.98 6 -8.96 6 -11 6 C-3.8 0 -3.8 0 0 0 Z " fill="#1D1D1D" transform="translate(492,766)"/>
<path d="M0 0 C0.99 0.33 1.98 0.66 3 1 C2.030625 1.639375 1.06125 2.27875 0.0625 2.9375 C-2.76036269 4.6965259 -2.76036269 4.6965259 -4 6 C-5.66617115 6.04063832 -7.33388095 6.042721 -9 6 C-6.11861791 3.75892504 -3.25320657 1.66831106 0 0 Z " fill="#D0CFD0" transform="translate(630,751)"/>
<path d="M0 0 C0.33 0 0.66 0 1 0 C1 3.3 1 6.6 1 10 C0.01 10 -0.98 10 -2 10 C-1.46274105 6.62294375 -0.88935377 3.303314 0 0 Z " fill="#ECEDEC" transform="translate(687,645)"/>
<path d="M0 0 C0.66 0.33 1.32 0.66 2 1 C-0.6598561 4.44216672 -3.90288286 4.99504674 -8 6 C-5.63404067 3.38499232 -3.13950774 1.61000397 0 0 Z " fill="#CBCBCC" transform="translate(336,920)"/>
<path d="M0 0 C0.66 0.33 1.32 0.66 2 1 C-1.75 4 -1.75 4 -4 4 C-4.33 4.99 -4.66 5.98 -5 7 C-5.99 6.67 -6.98 6.34 -8 6 C-5.63404067 3.38499232 -3.13950774 1.61000397 0 0 Z " fill="#D3D2D4" transform="translate(850,623)"/>
<path d="M0 0 C4.455 1.98 4.455 1.98 9 4 C9 4.33 9 4.66 9 5 C7.35 5 5.7 5 4 5 C4 4.34 4 3.68 4 3 C2.35 2.67 0.7 2.34 -1 2 C-0.67 1.34 -0.34 0.68 0 0 Z " fill="#EDEDEC" transform="translate(341,570)"/>
<path d="M0 0 C-1 3 -1 3 -2.9375 4.125 C-3.618125 4.41375 -4.29875 4.7025 -5 5 C-5.99 5.495 -5.99 5.495 -7 6 C-7.66 5.34 -8.32 4.68 -9 4 C-2.25 0 -2.25 0 0 0 Z " fill="#1E1E1E" transform="translate(534,582)"/>
<path d="M0 0 C2.625 0.9375 2.625 0.9375 5 2 C5 2.99 5 3.98 5 5 C2.08482708 3.92598892 0.22189824 3.22189824 -2 1 C-1.34 0.67 -0.68 0.34 0 0 Z " fill="#282828" transform="translate(247,515)"/>
</svg>
